<svg version="1.0" xmlns="http://www.w3.org/2000/svg" width="256.000000pt" height="256.000000pt" viewBox="0 0 256.000000 256.000000" preserveAspectRatio="xMidYMid meet">
    <g transform="translate(0.000000,256.000000) scale(0.100000,-0.100000)" fill="#1E1E1E" stroke="none">
        <path d="M1230 2218 c-47 -24 -90 -77 -90 -112 0 -17 -43 -43 -241 -146 -133
            -69 -247 -124 -253 -123 -6 1 -28 6 -48 11 -85 22 -178 -40 -193 -127 -9 -54
            25 -126 75 -159 29 -20 44 -23 90 -19 30 2 60 6 65 8 6 2 120 -59 253 -136
            208 -121 242 -143 242 -164 0 -31 33 -84 65 -105 l25 -16 0 -255 c0 -163 -4
            -255 -10 -255 -5 0 -124 57 -264 127 -232 116 -255 129 -260 156 -14 71 -74
            117 -153 117 -165 0 -217 -220 -71 -296 35 -18 107 -21 137 -5 17 10 58 -8
            274 -115 l253 -127 17 -48 c51 -141 237 -145 296 -6 16 37 29 46 260 167 223
            117 246 127 273 118 16 -6 52 -8 81 -5 43 4 56 10 88 45 44 46 57 96 40 152
            -12 41 -53 87 -89 101 -41 16 -113 10 -148 -11 -29 -19 -74 -89 -74 -117 0
            -10 -466 -263 -483 -263 -4 0 -7 120 -7 266 l0 266 25 30 c13 16 29 46 35 67
            10 36 18 43 257 179 208 119 249 139 266 130 11 -5 44 -8 74 -6 42 4 60 11 84
            34 60 56 73 119 38 190 -55 114 -214 117 -277 6 -12 -22 -22 -48 -22 -58 0
            -14 -63 -55 -246 -159 -136 -77 -252 -138 -258 -136 -39 13 -76 16 -114 8 -42
            -9 -44 -7 -272 125 -126 73 -230 136 -230 139 0 4 105 61 234 128 209 108 237
            120 261 111 94 -36 189 14 215 111 21 77 -31 166 -111 189 -48 14 -59 13 -109
        -12z"/>
    </g>
</svg>